<svg width="16" height="16" viewBox="0 0 16 16" fill="none" xmlns="http://www.w3.org/2000/svg">
<path d="M0.781396 16.0001C0.626858 16.0001 0.475783 15.9543 0.347281 15.8685C0.218778 15.7826 0.118621 15.6606 0.0594776 15.5178C0.000334661 15.3751 -0.0151369 15.218 0.0150198 15.0664C0.0451766 14.9148 0.119607 14.7756 0.228896 14.6664L14.6664 0.228853C14.8129 0.0823209 15.0117 0 15.2189 0C15.4261 0 15.6249 0.0823209 15.7714 0.228853C15.9179 0.375385 16.0002 0.574125 16.0002 0.781353C16.0002 0.988581 15.9179 1.18732 15.7714 1.33385L1.3339 15.7714C1.26141 15.844 1.17528 15.9016 1.08047 15.9408C0.985653 15.9801 0.884016 16.0002 0.781396 16.0001Z" fill="#6F73EE"/>
</svg>
